<svg width="146" height="18" viewBox="0 0 146 18" fill="none" xmlns="http://www.w3.org/2000/svg">
<path d="M141.951 7.73C142.443 7.02927 143.04 6.47453 143.74 6.06577C144.441 5.65701 145.195 5.45264 146 5.45264V10.0293H144.77C143.815 10.0293 143.107 10.2117 142.644 10.5767C142.182 10.9417 141.951 11.5767 141.951 12.4818V17.8468H137.566V5.56212H141.951V7.73Z" fill="white"/>
<path d="M135.548 11.5621C135.548 11.8978 135.525 12.2336 135.481 12.5694H127.181C127.226 13.2409 127.412 13.7445 127.74 14.0803C128.083 14.4015 128.516 14.5621 129.038 14.5621C129.768 14.5621 130.29 14.2409 130.604 13.5986H135.279C135.085 14.4453 134.705 15.2044 134.138 15.8759C133.587 16.5329 132.886 17.0511 132.035 17.4307C131.185 17.8102 130.246 18 129.217 18C127.979 18 126.875 17.7445 125.906 17.2336C124.951 16.7226 124.198 15.9927 123.646 15.0438C123.109 14.0949 122.841 12.9781 122.841 11.6935C122.841 10.4088 123.109 9.29931 123.646 8.36501C124.183 7.4161 124.929 6.68618 125.883 6.17523C126.853 5.66429 127.964 5.40881 129.217 5.40881C130.455 5.40881 131.551 5.65699 132.505 6.15334C133.46 6.64969 134.205 7.36501 134.742 8.29931C135.279 9.21902 135.548 10.3066 135.548 11.5621ZM131.073 10.4891C131.073 9.96354 130.894 9.55478 130.537 9.26281C130.179 8.95625 129.731 8.80296 129.194 8.80296C128.657 8.80296 128.217 8.94895 127.874 9.24092C127.531 9.51829 127.308 9.93434 127.203 10.4891H131.073Z" fill="white"/>
<path d="M118.666 4.42334C117.89 4.42334 117.264 4.21896 116.787 3.8102C116.324 3.38685 116.093 2.8613 116.093 2.23357C116.093 1.59124 116.324 1.05839 116.787 0.635035C117.264 0.211678 117.89 0 118.666 0C119.426 0 120.038 0.211678 120.5 0.635035C120.978 1.05839 121.216 1.59124 121.216 2.23357C121.216 2.8613 120.978 3.38685 120.5 3.8102C120.038 4.21896 119.426 4.42334 118.666 4.42334ZM120.836 5.56202V17.8466H116.451V5.56202H120.836Z" fill="white"/>
<path d="M113.73 1.64233V17.8467H109.345V1.64233H113.73Z" fill="white"/>
<path d="M107.327 11.5621C107.327 11.8978 107.305 12.2336 107.26 12.5694H98.9604C99.0051 13.2409 99.1915 13.7445 99.5197 14.0803C99.8627 14.4015 100.295 14.5621 100.817 14.5621C101.548 14.5621 102.07 14.2409 102.383 13.5986H107.059C106.865 14.4453 106.485 15.2044 105.918 15.8759C105.366 16.5329 104.665 17.0511 103.815 17.4307C102.965 17.8102 102.025 18 100.996 18C99.7583 18 98.6546 17.7445 97.6852 17.2336C96.7307 16.7226 95.9775 15.9927 95.4257 15.0438C94.8888 14.0949 94.6203 12.9781 94.6203 11.6935C94.6203 10.4088 94.8888 9.29931 95.4257 8.36501C95.9626 7.4161 96.7083 6.68618 97.6628 6.17523C98.6323 5.66429 99.7434 5.40881 100.996 5.40881C102.234 5.40881 103.33 5.65699 104.285 6.15334C105.239 6.64969 105.985 7.36501 106.522 8.29931C107.059 9.21902 107.327 10.3066 107.327 11.5621ZM102.853 10.4891C102.853 9.96354 102.674 9.55478 102.316 9.26281C101.958 8.95625 101.511 8.80296 100.974 8.80296C100.437 8.80296 99.9969 8.94895 99.6539 9.24092C99.3109 9.51829 99.0871 9.93434 98.9827 10.4891H102.853Z" fill="white"/>
<path d="M87.6318 5.45264C89.2128 5.45264 90.4507 5.91979 91.3455 6.85409C92.2553 7.78839 92.7102 9.06576 92.7102 10.6862V17.8468H88.3254V11.2555C88.3254 10.5986 88.1389 10.0877 87.7661 9.72269C87.3932 9.35773 86.8861 9.17525 86.2448 9.17525C85.6035 9.17525 85.0964 9.35773 84.7235 9.72269C84.3507 10.0877 84.1643 10.5986 84.1643 11.2555V17.8468H79.7794V11.2555C79.7794 10.5986 79.593 10.0877 79.2201 9.72269C78.8622 9.35773 78.3626 9.17525 77.7213 9.17525C77.065 9.17525 76.5505 9.35773 76.1776 9.72269C75.8048 10.0877 75.6183 10.5986 75.6183 11.2555V17.8468H71.2335V5.56212H75.6183V7.18256C76.0061 6.65701 76.5057 6.24096 77.1172 5.93439C77.7436 5.61322 78.4595 5.45264 79.2649 5.45264C80.1896 5.45264 81.0099 5.64972 81.7258 6.04388C82.4566 6.43803 83.0308 6.99278 83.4484 7.7081C83.8958 7.03657 84.4849 6.49643 85.2157 6.08767C85.9465 5.66432 86.7519 5.45264 87.6318 5.45264Z" fill="white"/>
<path d="M69.2154 11.5621C69.2154 11.8978 69.193 12.2336 69.1482 12.5694H60.8484C60.8931 13.2409 61.0796 13.7445 61.4077 14.0803C61.7507 14.4015 62.1832 14.5621 62.7052 14.5621C63.436 14.5621 63.958 14.2409 64.2712 13.5986H68.9469C68.753 14.4453 68.3727 15.2044 67.8059 15.8759C67.2541 16.5329 66.5531 17.0511 65.703 17.4307C64.8529 17.8102 63.9133 18 62.8842 18C61.6463 18 60.5427 17.7445 59.5732 17.2336C58.6187 16.7226 57.8655 15.9927 57.3137 15.0438C56.7768 14.0949 56.5083 12.9781 56.5083 11.6935C56.5083 10.4088 56.7768 9.29931 57.3137 8.36501C57.8506 7.4161 58.5963 6.68618 59.5509 6.17523C60.5203 5.66429 61.6314 5.40881 62.8842 5.40881C64.1221 5.40881 65.2183 5.65699 66.1728 6.15334C67.1273 6.64969 67.8731 7.36501 68.41 8.29931C68.9469 9.21902 69.2154 10.3066 69.2154 11.5621ZM64.741 10.4891C64.741 9.96354 64.5621 9.55478 64.2041 9.26281C63.8462 8.95625 63.3988 8.80296 62.8618 8.80296C62.3249 8.80296 61.885 8.94895 61.5419 9.24092C61.1989 9.51829 60.9752 9.93434 60.8708 10.4891H64.741Z" fill="white"/>
<path d="M49.5199 5.45264C51.1008 5.45264 52.3387 5.91979 53.2335 6.85409C54.1433 7.78839 54.5982 9.06576 54.5982 10.6862V17.8468H50.2134V11.2555C50.2134 10.5986 50.027 10.0877 49.6541 9.72269C49.2812 9.35773 48.7742 9.17525 48.1328 9.17525C47.4915 9.17525 46.9844 9.35773 46.6116 9.72269C46.2387 10.0877 46.0523 10.5986 46.0523 11.2555V17.8468H41.6675V11.2555C41.6675 10.5986 41.481 10.0877 41.1082 9.72269C40.7502 9.35773 40.2506 9.17525 39.6093 9.17525C38.9531 9.17525 38.4385 9.35773 38.0657 9.72269C37.6928 10.0877 37.5064 10.5986 37.5064 11.2555V17.8468H33.1216V5.56212H37.5064V7.18256C37.8941 6.65701 38.3938 6.24096 39.0053 5.93439C39.6317 5.61322 40.3475 5.45264 41.1529 5.45264C42.0776 5.45264 42.8979 5.64972 43.6138 6.04388C44.3446 6.43803 44.9188 6.99278 45.3364 7.7081C45.7838 7.03657 46.3729 6.49643 47.1037 6.08767C47.8345 5.66432 48.6399 5.45264 49.5199 5.45264Z" fill="white"/>
<path d="M16.9763 11.6935C16.9763 10.4234 17.2075 9.31391 17.6698 8.36501C18.1471 7.4161 18.7884 6.68618 19.5938 6.17523C20.4141 5.66429 21.3238 5.40881 22.3231 5.40881C23.1881 5.40881 23.9339 5.5767 24.5603 5.91246C25.1867 6.24823 25.6714 6.70078 26.0144 7.27012V5.5621H30.3992V17.8467H26.0144V16.1387C25.6714 16.708 25.1792 17.1606 24.5379 17.4964C23.9115 17.8321 23.1732 18 22.3231 18C21.3238 18 20.4141 17.7445 19.5938 17.2336C18.7884 16.7226 18.1471 15.9927 17.6698 15.0438C17.2075 14.0803 16.9763 12.9635 16.9763 11.6935ZM26.0144 11.6935C26.0144 10.9051 25.7907 10.2847 25.3433 9.83215C24.9107 9.3796 24.3738 9.15332 23.7325 9.15332C23.0763 9.15332 22.5319 9.3796 22.0994 9.83215C21.6669 10.2701 21.4506 10.8905 21.4506 11.6935C21.4506 12.4818 21.6669 13.1095 22.0994 13.5767C22.5319 14.0292 23.0763 14.2555 23.7325 14.2555C24.3738 14.2555 24.9107 14.0292 25.3433 13.5767C25.7907 13.1241 26.0144 12.4964 26.0144 11.6935Z" fill="white"/>
<path d="M10.6041 7.48905C10.3506 7.08029 10.0001 6.76642 9.55264 6.54745C9.12012 6.32847 8.60557 6.21898 8.009 6.21898C6.90534 6.21898 6.03285 6.56934 5.39153 7.27007C4.76513 7.9708 4.45193 8.9124 4.45193 10.0949C4.45193 11.4233 4.7875 12.4379 5.45865 13.1387C6.14471 13.8248 7.13651 14.1679 8.43406 14.1679C9.97024 14.1679 11.0664 13.489 11.7227 12.1314H7.31548V9.04379H15.5035V13.2044C15.1604 14.0219 14.6533 14.7883 13.9822 15.5036C13.326 16.2189 12.4908 16.8102 11.4766 17.2773C10.4624 17.7299 9.30655 17.9562 8.009 17.9562C6.42808 17.9562 5.02613 17.6277 3.80316 16.9708C2.5951 16.2992 1.65549 15.3722 0.984347 14.1898C0.328116 12.9927 0 11.6277 0 10.0949C0 8.57664 0.328116 7.22628 0.984347 6.0438C1.65549 4.84672 2.5951 3.91972 3.80316 3.26279C5.01122 2.59126 6.40571 2.25549 7.98663 2.25549C9.97024 2.25549 11.6108 2.72264 12.9084 3.65695C14.2059 4.59125 15.0113 5.86862 15.3245 7.48905H10.6041Z" fill="white"/>
</svg>
