<svg width="362" height="302" viewBox="0 0 362 302" fill="none" xmlns="http://www.w3.org/2000/svg">
<g filter="url(#filter0_f_75_1989)">
<ellipse cx="179.601" cy="164.79" rx="58.0346" ry="17.2629" fill="url(#paint0_linear_75_1989)" fill-opacity="0.4"/>
<path d="M179.601 148.876C195.534 148.876 209.907 150.799 220.253 153.876C225.435 155.418 229.53 157.227 232.299 159.174C235.105 161.148 236.286 163.066 236.286 164.79C236.286 166.513 235.105 168.431 232.299 170.405C229.53 172.352 225.434 174.161 220.253 175.703C209.907 178.78 195.534 180.703 179.601 180.703C163.668 180.703 149.295 178.78 138.949 175.703C133.768 174.161 129.673 172.352 126.903 170.405C124.097 168.431 122.916 166.513 122.916 164.79C122.916 163.066 124.097 161.148 126.903 159.174C129.673 157.227 133.768 155.418 138.949 153.876C149.295 150.799 163.668 148.877 179.601 148.876Z" stroke="url(#paint1_linear_75_1989)" stroke-width="2.69931"/>
</g>
<g filter="url(#filter1_f_75_1989)">
<path d="M237.635 164.79C237.635 174.324 211.652 182.052 179.601 182.052" stroke="url(#paint2_linear_75_1989)" stroke-width="6.74827"/>
</g>
<ellipse cx="179.602" cy="178.792" rx="53.4659" ry="19.9934" fill="url(#paint3_linear_75_1989)"/>
<path d="M179.602 158.313C209.847 158.313 234.365 167.482 234.365 178.792C234.365 190.102 209.847 199.271 179.602 199.271C149.356 199.271 124.838 190.102 124.838 178.792C124.838 167.482 149.357 158.313 179.602 158.313ZM179.602 158.798C150.074 158.798 126.136 167.75 126.136 178.792C126.136 189.834 150.073 198.786 179.602 198.786C209.13 198.786 233.068 189.834 233.068 178.792C233.068 167.75 209.13 158.798 179.602 158.798Z" fill="url(#paint4_linear_75_1989)"/>
<g filter="url(#filter2_f_75_1989)">
<path d="M179.858 221L81 81L281 81L179.858 221Z" fill="url(#paint5_linear_75_1989)" fill-opacity="0.6"/>
</g>
<g filter="url(#filter3_df_75_1989)">
<path d="M179.602 158.313C209.847 158.313 234.365 167.482 234.365 178.792C234.365 190.102 209.847 199.271 179.602 199.271C149.356 199.271 124.838 190.102 124.838 178.792C124.838 167.482 149.357 158.313 179.602 158.313ZM179.602 158.709C150.074 158.71 126.136 167.7 126.136 178.792C126.136 189.883 150.073 198.874 179.602 198.875C209.13 198.875 233.068 189.883 233.068 178.792C233.068 167.7 209.13 158.709 179.602 158.709Z" fill="url(#paint6_linear_75_1989)" shape-rendering="crispEdges"/>
</g>
<g filter="url(#filter4_f_75_1989)">
<path d="M179.601 163.5C201.573 163.5 219.386 169.165 219.386 176.153C219.386 183.142 201.573 188.807 179.601 188.807C157.628 188.807 139.815 183.142 139.815 176.153C139.816 169.165 157.628 163.5 179.601 163.5ZM179.601 164.442C159.265 164.442 142.779 169.686 142.779 176.153C142.779 182.621 159.265 187.864 179.601 187.864C199.936 187.864 216.422 182.621 216.422 176.153C216.422 169.686 199.936 164.442 179.601 164.442Z" fill="url(#paint7_linear_75_1989)"/>
</g>
<g filter="url(#filter5_d_75_1989)">
<path d="M179.601 163.5C201.573 163.5 219.386 169.165 219.386 176.153C219.386 183.142 201.573 188.807 179.601 188.807C157.628 188.807 139.815 183.142 139.815 176.153C139.816 169.165 157.628 163.5 179.601 163.5ZM179.601 164.442C159.265 164.442 142.779 169.686 142.779 176.153C142.779 182.621 159.265 187.864 179.601 187.864C199.936 187.864 216.422 182.621 216.422 176.153C216.422 169.686 199.936 164.442 179.601 164.442Z" fill="url(#paint8_linear_75_1989)" shape-rendering="crispEdges"/>
</g>
<path d="M121.858 166.542C124.81 175.253 149.534 182.052 179.598 182.052C209.273 182.052 233.744 175.426 237.21 166.877L234.587 178.641C234.567 178.692 234.546 178.742 234.526 178.792C234.526 178.834 234.524 178.878 234.523 178.92L234.078 180.92L233.615 182.515C228.902 192.047 206.436 199.271 179.592 199.271C149.819 199.271 128.209 191.554 124.885 179.708L124.74 179.142L121.858 166.542Z" fill="url(#paint9_linear_75_1989)" fill-opacity="0.5"/>
<g filter="url(#filter6_f_75_1989)">
<path d="M179.602 167.599C189.903 167.599 198.507 169.91 200.567 172.991H198.868C196.742 170.387 188.922 168.454 179.601 168.454C168.644 168.454 159.763 171.124 159.763 174.416C159.763 177.709 168.644 180.378 179.601 180.378C190.557 180.378 199.439 177.709 199.439 174.416H201.037C201.037 178.181 191.44 181.233 179.602 181.233C167.763 181.233 158.166 178.181 158.166 174.416C158.166 170.651 167.763 167.599 179.602 167.599Z" fill="url(#paint10_linear_75_1989)"/>
</g>
<g filter="url(#filter7_f_75_1989)">
<path d="M179.602 169.397C189.151 169.398 196.892 171.645 196.892 174.416C196.891 177.187 189.15 179.434 179.602 179.434C170.053 179.434 162.311 177.187 162.311 174.416C162.311 171.645 170.052 169.397 179.602 169.397Z" fill="#4DFFFF"/>
</g>
<g filter="url(#filter8_f_75_1989)">
<path d="M179.585 202.94L125.445 106.755L233.448 106.755L179.585 202.94Z" fill="url(#paint11_linear_75_1989)"/>
</g>
<g filter="url(#filter9_f_75_1989)">
<path d="M212.897 190.016C210.408 190.697 207.77 191.314 205.006 191.862C205.102 189.722 205.249 187.314 205.397 185.018C208.124 184.536 210.733 183.987 213.206 183.378L212.897 190.016ZM223.759 186.234C221.965 187.029 220.018 187.779 217.936 188.481C218.035 186.392 218.175 184.116 218.312 181.977C220.351 181.354 222.268 180.685 224.052 179.977L223.759 186.234ZM231.916 181.531C230.808 182.396 229.545 183.234 228.137 184.038C228.264 181.882 228.404 179.758 228.522 177.974C229.857 177.296 231.079 176.592 232.182 175.862L231.916 181.531Z" fill="#22D3EE"/>
</g>
<g filter="url(#filter10_f_75_1989)">
<path d="M179.602 172.713C181.705 172.713 183.412 173.419 183.412 174.289C183.412 175.159 181.706 175.865 179.602 175.865C177.498 175.865 175.792 175.159 175.792 174.289C175.792 173.419 177.498 172.713 179.602 172.713Z" fill="#FFFA76"/>
</g>
<g filter="url(#filter11_f_75_1989)">
<path d="M176.984 187.708C161.014 187.455 145.988 183.964 139.988 182.041L139.381 187.098C142.603 188.848 146.296 190.155 151.659 191.241L151.858 189.78C153.218 190.127 157.284 190.613 159.147 190.813L159.302 188.618C165.564 189.758 172.905 189.931 176.749 190.021L176.801 190.023C176.798 189.85 176.928 188.969 176.984 187.708Z" fill="#22D3EE"/>
</g>
<g filter="url(#filter12_d_75_1989)">
<path d="M156.49 152.476C159.83 154.784 169.563 156.459 181.05 156.459C192.191 156.459 201.683 154.884 205.291 152.683C206.296 153.803 206.846 155.429 206.846 157.756C206.843 159.82 195.294 164.79 181.05 164.79C166.804 164.79 155.256 159.95 155.254 157.755C155.254 155.38 155.689 153.678 156.49 152.476ZM181.048 114.451C181.725 114.451 182.389 114.459 183.04 114.475L182.572 118.434C181.729 125.557 186.821 132.02 193.943 132.869C200.147 133.608 205.845 129.845 207.77 124.154C208.944 125.026 210.381 125.558 211.939 125.615L207.256 144.701C206.485 147.844 204.556 150.576 201.469 151.548C197.64 152.753 191.152 154.064 181.048 154.064C168.721 154.064 162.239 152.508 158.993 151.229C156.91 150.407 155.755 148.435 155.222 146.261L150.155 125.616C151.714 125.559 153.151 125.024 154.325 124.152C156.249 129.844 161.948 133.609 168.152 132.869C175.275 132.02 180.366 125.557 179.523 118.434L179.055 114.475C179.706 114.459 180.37 114.451 181.048 114.451ZM181.048 134.743C178.71 134.744 176.815 137.541 176.814 140.992C176.814 144.444 178.71 147.242 181.048 147.242C183.386 147.242 185.282 144.444 185.282 140.992C185.282 137.541 183.386 134.743 181.048 134.743ZM149.483 111.194C152.84 111.194 155.561 113.925 155.561 117.294C155.56 120.662 152.84 123.392 149.483 123.393C146.127 123.393 143.406 120.662 143.406 117.294C143.406 113.925 146.127 111.194 149.483 111.194ZM212.52 111.145C215.876 111.145 218.597 113.876 218.597 117.244C218.596 120.613 215.876 123.343 212.52 123.343C209.163 123.343 206.443 120.613 206.442 117.244C206.442 113.876 209.163 111.145 212.52 111.145ZM181.05 98.3359C184.876 98.3359 187.978 101.449 187.978 105.289C187.977 109.129 184.876 112.241 181.05 112.241C177.224 112.241 174.122 109.129 174.122 105.289C174.122 101.449 177.224 98.336 181.05 98.3359Z" fill="url(#paint12_linear_75_1989)" shape-rendering="crispEdges"/>
</g>
<defs>
<filter id="filter0_f_75_1989" x="118.867" y="144.828" width="121.468" height="39.9245" filterUnits="userSpaceOnUse" color-interpolation-filters="sRGB">
<feFlood flood-opacity="0" result="BackgroundImageFix"/>
<feBlend mode="normal" in="SourceGraphic" in2="BackgroundImageFix" result="shape"/>
<feGaussianBlur stdDeviation="1.34965" result="effect1_foregroundBlur_75_1989"/>
</filter>
<filter id="filter1_f_75_1989" x="176.901" y="162.09" width="66.8078" height="26.0358" filterUnits="userSpaceOnUse" color-interpolation-filters="sRGB">
<feFlood flood-opacity="0" result="BackgroundImageFix"/>
<feBlend mode="normal" in="SourceGraphic" in2="BackgroundImageFix" result="shape"/>
<feGaussianBlur stdDeviation="1.34965" result="effect1_foregroundBlur_75_1989"/>
</filter>
<filter id="filter2_f_75_1989" x="0.0207291" y="0.0207291" width="361.959" height="301.959" filterUnits="userSpaceOnUse" color-interpolation-filters="sRGB">
<feFlood flood-opacity="0" result="BackgroundImageFix"/>
<feBlend mode="normal" in="SourceGraphic" in2="BackgroundImageFix" result="shape"/>
<feGaussianBlur stdDeviation="40.4896" result="effect1_foregroundBlur_75_1989"/>
</filter>
<filter id="filter3_df_75_1989" x="114.041" y="147.516" width="131.122" height="62.5525" filterUnits="userSpaceOnUse" color-interpolation-filters="sRGB">
<feFlood flood-opacity="0" result="BackgroundImageFix"/>
<feColorMatrix in="SourceAlpha" type="matrix" values="0 0 0 0 0 0 0 0 0 0 0 0 0 0 0 0 0 0 127 0" result="hardAlpha"/>
<feOffset/>
<feGaussianBlur stdDeviation="5.39862"/>
<feComposite in2="hardAlpha" operator="out"/>
<feColorMatrix type="matrix" values="0 0 0 0 0.3625 0 0 0 0 0.847 0 0 0 0 1 0 0 0 0.25 0"/>
<feBlend mode="normal" in2="BackgroundImageFix" result="effect1_dropShadow_75_1989"/>
<feBlend mode="normal" in="SourceGraphic" in2="effect1_dropShadow_75_1989" result="shape"/>
<feGaussianBlur stdDeviation="2.69931" result="effect2_foregroundBlur_75_1989"/>
</filter>
<filter id="filter4_f_75_1989" x="129.018" y="152.703" width="101.165" height="46.9011" filterUnits="userSpaceOnUse" color-interpolation-filters="sRGB">
<feFlood flood-opacity="0" result="BackgroundImageFix"/>
<feBlend mode="normal" in="SourceGraphic" in2="BackgroundImageFix" result="shape"/>
<feGaussianBlur stdDeviation="5.39862" result="effect1_foregroundBlur_75_1989"/>
</filter>
<filter id="filter5_d_75_1989" x="115.522" y="139.206" width="128.158" height="73.8942" filterUnits="userSpaceOnUse" color-interpolation-filters="sRGB">
<feFlood flood-opacity="0" result="BackgroundImageFix"/>
<feColorMatrix in="SourceAlpha" type="matrix" values="0 0 0 0 0 0 0 0 0 0 0 0 0 0 0 0 0 0 127 0" result="hardAlpha"/>
<feOffset/>
<feGaussianBlur stdDeviation="12.1469"/>
<feComposite in2="hardAlpha" operator="out"/>
<feColorMatrix type="matrix" values="0 0 0 0 0.141667 0 0 0 0 0.691 0 0 0 0 1 0 0 0 1 0"/>
<feBlend mode="normal" in2="BackgroundImageFix" result="effect1_dropShadow_75_1989"/>
<feBlend mode="normal" in="SourceGraphic" in2="effect1_dropShadow_75_1989" result="shape"/>
</filter>
<filter id="filter6_f_75_1989" x="155.467" y="164.899" width="48.2697" height="19.0334" filterUnits="userSpaceOnUse" color-interpolation-filters="sRGB">
<feFlood flood-opacity="0" result="BackgroundImageFix"/>
<feBlend mode="normal" in="SourceGraphic" in2="BackgroundImageFix" result="shape"/>
<feGaussianBlur stdDeviation="1.34965" result="effect1_foregroundBlur_75_1989"/>
</filter>
<filter id="filter7_f_75_1989" x="154.213" y="161.3" width="50.7769" height="26.232" filterUnits="userSpaceOnUse" color-interpolation-filters="sRGB">
<feFlood flood-opacity="0" result="BackgroundImageFix"/>
<feBlend mode="normal" in="SourceGraphic" in2="BackgroundImageFix" result="shape"/>
<feGaussianBlur stdDeviation="4.04896" result="effect1_foregroundBlur_75_1989"/>
</filter>
<filter id="filter8_f_75_1989" x="109.249" y="90.5595" width="140.395" height="128.577" filterUnits="userSpaceOnUse" color-interpolation-filters="sRGB">
<feFlood flood-opacity="0" result="BackgroundImageFix"/>
<feBlend mode="normal" in="SourceGraphic" in2="BackgroundImageFix" result="shape"/>
<feGaussianBlur stdDeviation="8.09793" result="effect1_foregroundBlur_75_1989"/>
</filter>
<filter id="filter9_f_75_1989" x="199.607" y="170.464" width="37.973" height="26.7972" filterUnits="userSpaceOnUse" color-interpolation-filters="sRGB">
<feFlood flood-opacity="0" result="BackgroundImageFix"/>
<feBlend mode="normal" in="SourceGraphic" in2="BackgroundImageFix" result="shape"/>
<feGaussianBlur stdDeviation="2.69931" result="effect1_foregroundBlur_75_1989"/>
</filter>
<filter id="filter10_f_75_1989" x="164.995" y="161.916" width="29.2146" height="24.7458" filterUnits="userSpaceOnUse" color-interpolation-filters="sRGB">
<feFlood flood-opacity="0" result="BackgroundImageFix"/>
<feBlend mode="normal" in="SourceGraphic" in2="BackgroundImageFix" result="shape"/>
<feGaussianBlur stdDeviation="5.39862" result="effect1_foregroundBlur_75_1989"/>
</filter>
<filter id="filter11_f_75_1989" x="133.982" y="176.642" width="48.3998" height="19.9974" filterUnits="userSpaceOnUse" color-interpolation-filters="sRGB">
<feFlood flood-opacity="0" result="BackgroundImageFix"/>
<feBlend mode="normal" in="SourceGraphic" in2="BackgroundImageFix" result="shape"/>
<feGaussianBlur stdDeviation="2.69931" result="effect1_foregroundBlur_75_1989"/>
</filter>
<filter id="filter12_d_75_1989" x="116.413" y="71.3428" width="129.177" height="120.44" filterUnits="userSpaceOnUse" color-interpolation-filters="sRGB">
<feFlood flood-opacity="0" result="BackgroundImageFix"/>
<feColorMatrix in="SourceAlpha" type="matrix" values="0 0 0 0 0 0 0 0 0 0 0 0 0 0 0 0 0 0 127 0" result="hardAlpha"/>
<feOffset/>
<feGaussianBlur stdDeviation="13.4965"/>
<feComposite in2="hardAlpha" operator="out"/>
<feColorMatrix type="matrix" values="0 0 0 0 0.545098 0 0 0 0 0.360784 0 0 0 0 0.964706 0 0 0 0.7 0"/>
<feBlend mode="normal" in2="BackgroundImageFix" result="effect1_dropShadow_75_1989"/>
<feBlend mode="normal" in="SourceGraphic" in2="effect1_dropShadow_75_1989" result="shape"/>
</filter>
<linearGradient id="paint0_linear_75_1989" x1="179.601" y1="147.527" x2="179.601" y2="182.053" gradientUnits="userSpaceOnUse">
<stop stop-color="#DEF9FF" stop-opacity="0.5"/>
<stop offset="1" stop-color="#E9FBFF" stop-opacity="0"/>
</linearGradient>
<linearGradient id="paint1_linear_75_1989" x1="179.601" y1="186.885" x2="179.601" y2="142.15" gradientUnits="userSpaceOnUse">
<stop stop-color="#E8FEFF"/>
<stop offset="1" stop-color="#E8FEFF" stop-opacity="0"/>
</linearGradient>
<linearGradient id="paint2_linear_75_1989" x1="181.963" y1="183.184" x2="235.64" y2="166.924" gradientUnits="userSpaceOnUse">
<stop stop-color="#E8FEFF" stop-opacity="0"/>
<stop offset="0.599389" stop-color="#E8FEFF"/>
<stop offset="1" stop-color="#E8FEFF" stop-opacity="0"/>
</linearGradient>
<linearGradient id="paint3_linear_75_1989" x1="179.602" y1="158.798" x2="179.602" y2="198.785" gradientUnits="userSpaceOnUse">
<stop stop-color="#DEF9FF" stop-opacity="0.5"/>
<stop offset="1" stop-color="#E9FBFF" stop-opacity="0"/>
</linearGradient>
<linearGradient id="paint4_linear_75_1989" x1="179.602" y1="158.313" x2="179.602" y2="199.271" gradientUnits="userSpaceOnUse">
<stop stop-color="#DEF9FF" stop-opacity="0.5"/>
<stop offset="1" stop-color="#E9FBFF" stop-opacity="0.9"/>
</linearGradient>
<linearGradient id="paint5_linear_75_1989" x1="179.857" y1="221" x2="179.857" y2="81" gradientUnits="userSpaceOnUse">
<stop offset="0.250952" stop-color="#5FF5FF" stop-opacity="0"/>
<stop offset="0.453702" stop-color="#8B5CF6"/>
<stop offset="1" stop-color="#22D3EE" stop-opacity="0"/>
</linearGradient>
<linearGradient id="paint6_linear_75_1989" x1="179.602" y1="158.313" x2="179.602" y2="199.271" gradientUnits="userSpaceOnUse">
<stop stop-color="#DEF9FF" stop-opacity="0.5"/>
<stop offset="1" stop-color="#E9FBFF" stop-opacity="0.9"/>
</linearGradient>
<linearGradient id="paint7_linear_75_1989" x1="179.601" y1="163.5" x2="179.601" y2="188.807" gradientUnits="userSpaceOnUse">
<stop stop-color="#8B5CF6"/>
<stop offset="1" stop-color="#A9FFFA" stop-opacity="0.6"/>
</linearGradient>
<linearGradient id="paint8_linear_75_1989" x1="179.601" y1="163.5" x2="179.601" y2="188.807" gradientUnits="userSpaceOnUse">
<stop stop-color="#72F7FF"/>
<stop offset="1" stop-color="#A9FFFA" stop-opacity="0.6"/>
</linearGradient>
<linearGradient id="paint9_linear_75_1989" x1="111.865" y1="182.906" x2="253.509" y2="182.906" gradientUnits="userSpaceOnUse">
<stop stop-color="#B4F1FF"/>
<stop offset="0.472727" stop-color="#D8FFFD" stop-opacity="0"/>
<stop offset="1" stop-color="#B4F1FF"/>
</linearGradient>
<linearGradient id="paint10_linear_75_1989" x1="179.602" y1="167.599" x2="179.602" y2="181.233" gradientUnits="userSpaceOnUse">
<stop stop-color="#8B5CF6"/>
<stop offset="1" stop-color="#96FFF9" stop-opacity="0.6"/>
</linearGradient>
<linearGradient id="paint11_linear_75_1989" x1="179.584" y1="202.94" x2="179.584" y2="106.755" gradientUnits="userSpaceOnUse">
<stop offset="0.250952" stop-color="#5FF5FF" stop-opacity="0"/>
<stop offset="0.453702" stop-color="#8B5CF6"/>
<stop offset="1" stop-color="#22D3EE" stop-opacity="0"/>
</linearGradient>
<linearGradient id="paint12_linear_75_1989" x1="181.002" y1="131.563" x2="181.001" y2="215.857" gradientUnits="userSpaceOnUse">
<stop stop-color="white"/>
<stop offset="1" stop-color="white" stop-opacity="0"/>
</linearGradient>
</defs>
</svg>
